HIERARCHY
ROOT Hips
{
	OFFSET 0.000000 0.000000 0.000000
	CHANNELS 6 Xposition Yposition Zposition Zrotation Yrotation Xrotation
	JOINT Chest
	{
		OFFSET 0.000000 10.224184 -1.136021
		CHANNELS 3 Zrotation Yrotation Xrotation
		JOINT Chest2
		{
			OFFSET 0.000000 11.333266 0.000000
			CHANNELS 3 Zrotation Yrotation Xrotation
			JOINT Chest3
			{
				OFFSET 0.000000 10.347983 -0.005192
				CHANNELS 3 Zrotation Yrotation Xrotation
				JOINT Chest4
				{
					OFFSET 0.000000 10.336430 -0.005197
					CHANNELS 3 Zrotation Yrotation Xrotation
					JOINT Neck
					{
						OFFSET 0.000000 14.463488 0.000000
						CHANNELS 3 Zrotation Yrotation Xrotation
						JOINT Head
						{
							OFFSET 0.000000 9.624711 0.011165
							CHANNELS 3 Zrotation Yrotation Xrotation
							End Site
							{
								OFFSET 0.000000 0.000000 0.000000
							}
						}
					}
					JOINT RightCollar
					{
						OFFSET -3.157643 8.110621 0.000000
						CHANNELS 3 Zrotation Yrotation Xrotation
						JOINT RightShoulder
						{
							OFFSET -14.841244 0.000000 0.000000
							CHANNELS 3 Zrotation Yrotation Xrotation
							JOINT RightElbow
							{
								OFFSET -31.724693 0.000000 0.000000
								CHANNELS 3 Zrotation Yrotation Xrotation
								JOINT RightWrist
								{
									OFFSET -25.942014 0.000000 0.000000
									CHANNELS 3 Zrotation Yrotation Xrotation
									End Site
									{
										OFFSET 0.000000 0.000000 0.000000
									}
								}
							}
						}
					}
					JOINT LeftCollar
					{
						OFFSET 3.157643 8.110621 0.000000
						CHANNELS 3 Zrotation Yrotation Xrotation
						JOINT LeftShoulder
						{
							OFFSET 14.841244 0.000000 0.000000
							CHANNELS 3 Zrotation Yrotation Xrotation
							JOINT LeftElbow
							{
								OFFSET 31.724693 0.000000 0.000000
								CHANNELS 3 Zrotation Yrotation Xrotation
								JOINT LeftWrist
								{
									OFFSET 25.942014 0.000000 0.000000
									CHANNELS 3 Zrotation Yrotation Xrotation
									End Site
									{
										OFFSET 0.000000 0.000000 0.000000
									}
								}
							}
						}
					}
				}
			}
		}
	}
	JOINT RightHip
	{
		OFFSET -8.427108 0.013854 -0.001539
		CHANNELS 3 Zrotation Yrotation Xrotation
		JOINT RightKnee
		{
			OFFSET 0.000000 -43.437391 -0.001227
			CHANNELS 3 Zrotation Yrotation Xrotation
			JOINT RightAnkle
			{
				OFFSET 0.000000 -42.439704 -0.002068
				CHANNELS 3 Zrotation Yrotation Xrotation
				JOINT RightToe
				{
					OFFSET 0.000000 -8.481460 19.371378
					CHANNELS 3 Zrotation Yrotation Xrotation
					End Site
					{
						OFFSET 0.000000 0.000000 0.000000
					}
				}
			}
		}
	}
	JOINT LeftHip
	{
		OFFSET 8.427108 0.011561 -0.001285
		CHANNELS 3 Zrotation Yrotation Xrotation
		JOINT LeftKnee
		{
			OFFSET 0.000000 -43.437391 -0.001227
			CHANNELS 3 Zrotation Yrotation Xrotation
			JOINT LeftAnkle
			{
				OFFSET 0.000000 -42.439704 -0.002068
				CHANNELS 3 Zrotation Yrotation Xrotation
				JOINT LeftToe
				{
					OFFSET 0.000000 -8.481460 19.371378
					CHANNELS 3 Zrotation Yrotation Xrotation
					End Site
					{
						OFFSET 0.000000 0.000000 0.000000
					}
				}
			}
		}
	}
}
MOTION
Frames: 12
Frame Time: 0.004167
-310.765354 96.406085 0.688158 178.730189 10.658346 -177.389354 -1.151000 -0.788038 1.006721 -0.509833 -0.352734 -5.380877 -0.543006 -0.299158 0.439404 -0.407059 -0.224722 6.165971 0.098364 -1.034423 15.941086 0.551756 -1.848535 -6.431144 7.823427 1.096054 2.185943 74.707509 -2.253761 -13.306404 58.716949 50.482233 35.663031 0.276202 18.146655 -4.770239 -5.192250 1.373848 2.966652 -69.196780 0.436650 -16.126225 -52.428358 -52.049241 47.871465 2.243182 -12.968925 -1.688217 -4.811608 -3.031718 -1.465525 0.788361 -0.137631 0.506320 2.992865 3.293908 -2.141541 0.000000 -0.000000 0.000000 1.806736 3.004965 -4.420357 -0.515415 -0.096172 7.922255 -5.064079 -1.733480 -4.431604 -0.000000 -0.000000 0.000000 
-310.764424 96.402821 0.680753 178.734092 10.661826 -177.396671 -1.143863 -0.794848 1.006239 -0.506647 -0.355744 -5.381095 -0.540142 -0.302476 0.439189 -0.404909 -0.227209 6.165808 0.099414 -1.029128 15.892701 0.552443 -1.838346 -6.520967 7.816747 1.088700 2.187760 74.708236 -2.267707 -13.306943 58.708244 50.481602 35.650182 0.287075 18.152275 -4.769441 -5.199673 1.366469 2.963136 -69.190155 0.431147 -16.122544 -52.422398 -52.048924 47.866711 2.252463 -12.982514 -1.690969 -4.828340 -3.031028 -1.449039 0.828504 -0.140407 0.499448 2.971216 3.301122 -2.139453 0.000000 0.000000 0.000000 1.824376 2.992047 -4.409149 -0.545473 -0.084254 7.930735 -5.037597 -1.720882 -4.455277 -0.000000 0.000000 -0.000000 
-310.763450 96.399507 0.673324 178.738044 10.665126 -177.403982 -1.136646 -0.801901 1.005692 -0.503425 -0.358863 -5.381344 -0.537253 -0.305905 0.438946 -0.402740 -0.229778 6.165624 0.100439 -1.023633 15.843883 0.553008 -1.827795 -6.611591 7.810103 1.081165 2.189535 74.709077 -2.281561 -13.307505 58.700046 50.481132 35.637628 0.298044 18.157947 -4.768747 -5.207121 1.359048 2.959642 -69.183329 0.425758 -16.118850 -52.415843 -52.048625 47.861388 2.261699 -12.995885 -1.693769 -4.845292 -3.030408 -1.432416 0.869257 -0.143369 0.492448 2.949209 3.308450 -2.137369 0.000000 -0.000000 0.000000 1.842462 2.977995 -4.397930 -0.576188 -0.071539 7.939250 -5.010711 -1.708021 -4.479195 -0.000000 0.000000 -0.000000 
-310.762451 96.396164 0.665881 178.742025 10.668325 -177.411289 -1.129382 -0.809094 1.005105 -0.500182 -0.362043 -5.381610 -0.534349 -0.309397 0.438685 -0.400560 -0.232396 6.165427 0.101458 -1.018018 15.794818 0.553507 -1.817023 -6.702672 7.803480 1.073526 2.191284 74.709982 -2.295362 -13.308082 58.692138 50.480753 35.625242 0.309068 18.163648 -4.768114 -5.214584 1.351604 2.956158 -69.176389 0.420434 -16.115146 -52.408951 -52.048335 47.855742 2.270912 -13.009130 -1.696593 -4.862369 -3.029824 -1.415716 0.910362 -0.146436 0.485375 2.926996 3.315844 -2.135290 0.000000 -0.000000 -0.000000 1.860800 2.963294 -4.386706 -0.607279 -0.058370 7.947779 -4.983597 -1.695007 -4.503250 0.000000 0.000000 0.000000 
-310.761445 96.392813 0.658435 178.746012 10.671498 -177.418595 -1.122108 -0.816323 1.004509 -0.496934 -0.365238 -5.381879 -0.531443 -0.312906 0.438419 -0.398378 -0.235025 6.165227 0.102482 -1.012364 15.745692 0.553996 -1.806174 -6.793865 7.796861 1.065863 2.193025 74.710898 -2.309149 -13.308663 58.684300 50.480396 35.612897 0.320108 18.169352 -4.767496 -5.222050 1.344155 2.952676 -69.169421 0.415128 -16.111438 -52.401975 -52.048045 47.850017 2.280124 -13.022342 -1.699419 -4.879478 -3.029244 -1.398997 0.951554 -0.149523 0.478285 2.904732 3.323254 -2.133212 0.000000 -0.000000 0.000000 1.879198 2.948427 -4.375485 -0.638465 -0.045085 7.956300 -4.956428 -1.681947 -4.527334 0.000000 0.000000 0.000000 
-310.760452 96.389478 0.650996 178.749984 10.674724 -177.425903 -1.114858 -0.823483 1.003933 -0.493698 -0.368403 -5.382140 -0.528544 -0.316384 0.438163 -0.396202 -0.237631 6.165033 0.103531 -1.006752 15.696692 0.554529 -1.795387 -6.884823 7.790227 1.058253 2.194774 74.711773 -2.322963 -13.309240 58.676312 50.479993 35.600468 0.331124 18.175034 -4.766852 -5.229508 1.336720 2.949184 -69.162508 0.409793 -16.107733 -52.395168 -52.047748 47.844452 2.289360 -13.035611 -1.702228 -4.896526 -3.028632 -1.382319 0.992574 -0.152544 0.471233 2.882570 3.330633 -2.131136 0.000000 -0.000000 -0.000000 1.897461 2.933877 -4.364269 -0.669465 -0.032026 7.964792 -4.929381 -1.668950 -4.551342 0.000000 0.000000 0.000000 
-310.759490 96.386178 0.643574 178.753921 10.678078 -177.433215 -1.107668 -0.830471 1.003404 -0.490487 -0.371492 -5.382380 -0.525664 -0.319783 0.437929 -0.394040 -0.240179 6.164856 0.104617 -1.001263 15.648004 0.555161 -1.784807 -6.975203 7.783563 1.050774 2.196548 74.712554 -2.336844 -13.309805 58.667958 50.479472 35.587828 0.342075 18.180670 -4.766136 -5.236945 1.329316 2.945669 -69.155738 0.404378 -16.104039 -52.388784 -52.047433 47.839291 2.298637 -13.049029 -1.704997 -4.913418 -3.027957 -1.365742 1.033157 -0.155420 0.464274 2.860665 3.337928 -2.129062 0.000000 -0.000000 -0.000000 1.915396 2.920127 -4.353065 -0.699999 -0.019533 7.973239 -4.902633 -1.656124 -4.575166 0.000000 0.000000 0.000000 
-310.758580 96.382936 0.636178 178.757800 10.681636 -177.440534 -1.100571 -0.837184 1.002951 -0.487320 -0.374459 -5.382584 -0.522814 -0.323055 0.437729 -0.391900 -0.242631 6.164704 0.105756 -0.995976 15.599814 0.555948 -1.774577 -7.064661 7.776853 1.043504 2.198365 74.713191 -2.350833 -13.310346 58.659017 50.478767 35.574851 0.352920 18.186235 -4.765304 -5.244352 1.321963 2.942122 -69.149195 0.398835 -16.100359 -52.383079 -52.047096 47.834778 2.307981 -13.062687 -1.707704 -4.930062 -3.027185 -1.349323 1.073045 -0.158065 0.457464 2.839169 3.345092 -2.126987 0.000000 0.000000 0.000000 1.932810 2.907659 -4.341876 -0.729784 -0.007948 7.981620 -4.876359 -1.643579 -4.598700 0.000000 0.000000 0.000000 
-310.757738 96.379773 0.628819 178.761601 10.685477 -177.447862 -1.093604 -0.843516 1.002603 -0.484210 -0.377257 -5.382742 -0.520004 -0.326155 0.437576 -0.389792 -0.244954 6.164589 0.106962 -0.990974 15.552308 0.556943 -1.764841 -7.152850 7.770078 1.036522 2.200240 74.713631 -2.364967 -13.310855 58.649274 50.477807 35.561411 0.363622 18.191706 -4.764310 -5.251716 1.314678 2.938531 -69.142964 0.393118 -16.096701 -52.378307 -52.046724 47.831155 2.317410 -13.076678 -1.710326 -4.946363 -3.026283 -1.333124 1.111974 -0.160396 0.450859 2.818237 3.352076 -2.124913 0.000000 0.000000 0.000000 1.949513 2.896957 -4.330708 -0.758539 0.002392 7.989918 -4.850733 -1.631425 -4.621836 0.000000 0.000000 0.000000 
-310.756985 96.376711 0.621506 178.765301 10.689678 -177.455203 -1.086802 -0.849366 1.002390 -0.481175 -0.379842 -5.382837 -0.517247 -0.329035 0.437484 -0.387721 -0.247111 6.164519 0.108250 -0.986337 15.505672 0.558203 -1.755742 -7.239429 7.763224 1.029906 2.202192 74.713824 -2.379288 -13.311325 58.638508 50.476524 35.547385 0.374139 18.197058 -4.763109 -5.259026 1.307481 2.934886 -69.137130 0.387175 -16.093070 -52.374722 -52.046314 47.828666 2.326950 -13.091092 -1.712841 -4.962229 -3.025220 -1.317204 1.149684 -0.162332 0.444514 2.798023 3.358831 -2.122835 -0.000000 0.000000 -0.000000 1.965309 2.888506 -4.319564 -0.785985 0.011142 7.998118 -4.825932 -1.619768 -4.644470 0.000000 -0.000000 -0.000000 
-310.756340 96.373772 0.614249 178.768880 10.694314 -177.462557 -1.080199 -0.854628 1.002338 -0.478228 -0.382167 -5.382861 -0.514552 -0.331646 0.437465 -0.385699 -0.249068 6.164504 0.109635 -0.982148 15.460093 0.559781 -1.747423 -7.324052 7.756273 1.023732 2.204237 74.713716 -2.393836 -13.311742 58.626504 50.474848 35.532647 0.384431 18.202267 -4.761659 -5.266271 1.300388 2.931174 -69.131780 0.380961 -16.089475 -52.372579 -52.045857 47.827551 2.336620 -13.106023 -1.715229 -4.977565 -3.023961 -1.301621 1.185911 -0.163789 0.438486 2.778680 3.365307 -2.120755 0.000000 0.000000 0.000000 1.980010 2.882788 -4.308448 -0.811838 0.017964 8.006202 -4.802130 -1.608721 -4.666495 0.000000 -0.000000 -0.000000 
-310.755821 96.370976 0.607059 178.772317 10.699464 -177.469929 -1.073832 -0.859199 1.002479 -0.475388 -0.384184 -5.382798 -0.511931 -0.333942 0.437532 -0.383731 -0.250789 6.164553 0.111128 -0.978487 15.415756 0.561732 -1.740032 -7.406373 7.749208 1.018081 2.206392 74.713257 -2.408648 -13.312100 58.613042 50.472708 35.517070 0.394458 18.207310 -4.759913 -5.273438 1.293418 2.927387 -69.126996 0.374425 -16.085920 -52.372131 -52.045344 47.828055 2.346443 -13.121561 -1.717466 -4.992279 -3.022475 -1.286436 1.220394 -0.164686 0.432830 2.760363 3.371455 -2.118670 0.000000 0.000000 0.000000 1.993423 2.880286 -4.297365 -0.835818 0.022517 8.014156 -4.779501 -1.598391 -4.687805 -0.000000 -0.000000 0.000000 
